<svg version="1.1" xmlns="http://www.w3.org/2000/svg" viewBox="0 0 2783.074408120118 1089.712968150125" width="2783.074408120118" height="1089.712968150125">
  <!-- svg-source:excalidraw -->
  
  <defs>
    <style class="style-fonts">
      @font-face {
        font-family: "Virgil";
        src: url("https://excalidraw.com/Virgil.woff2");
      }
      @font-face {
        font-family: "Cascadia";
        src: url("https://excalidraw.com/Cascadia.woff2");
      }
    </style>
    
  </defs>
  <rect x="0" y="0" width="2783.074408120118" height="1089.712968150125" fill="#f5faff"></rect><g stroke-linecap="round" transform="translate(1170.6174298703918 68.4889172308699) rotate(0 326.26950214328565 209.99635343131575)"><path d="M32 0 M32 0 C257.89 0, 483.79 0, 620.54 0 M32 0 C238.58 0, 445.16 0, 620.54 0 M620.54 0 C641.87 0, 652.54 10.67, 652.54 32 M620.54 0 C641.87 0, 652.54 10.67, 652.54 32 M652.54 32 C652.54 132.39, 652.54 232.79, 652.54 387.99 M652.54 32 C652.54 161.29, 652.54 290.59, 652.54 387.99 M652.54 387.99 C652.54 409.33, 641.87 419.99, 620.54 419.99 M652.54 387.99 C652.54 409.33, 641.87 419.99, 620.54 419.99 M620.54 419.99 C468.47 419.99, 316.39 419.99, 32 419.99 M620.54 419.99 C407.19 419.99, 193.84 419.99, 32 419.99 M32 419.99 C10.67 419.99, 0 409.33, 0 387.99 M32 419.99 C10.67 419.99, 0 409.33, 0 387.99 M0 387.99 C0 268.54, 0 149.09, 0 32 M0 387.99 C0 278.43, 0 168.87, 0 32 M0 32 C0 10.67, 10.67 0, 32 0 M0 32 C0 10.67, 10.67 0, 32 0" stroke="#1971c2" stroke-width="1" fill="none"></path></g><g transform="translate(1430.259788109232 78.35451772764293) rotate(0 49.01000016020748 13.697607157304617)"><text x="49.01000016020746" y="0" font-family="Virgil, Segoe UI Emoji" font-size="10.958085725843677px" fill="#1971c2" text-anchor="middle" style="white-space: pre;" direction="ltr" dominant-baseline="text-before-edge">HOme blog's Cards</text><text x="49.01000016020746" y="13.697607157304596" font-family="Virgil, Segoe UI Emoji" font-size="10.958085725843677px" fill="#1971c2" text-anchor="middle" style="white-space: pre;" direction="ltr" dominant-baseline="text-before-edge"></text></g><g stroke-linecap="round" transform="translate(1415.848070790183 134.7293777092043) rotate(0 79.6294897239552 72.23028935137535)"><path d="M32 0 M32 0 C51.33 0, 70.66 0, 127.26 0 M32 0 C67.32 0, 102.64 0, 127.26 0 M127.26 0 C148.59 0, 159.26 10.67, 159.26 32 M127.26 0 C148.59 0, 159.26 10.67, 159.26 32 M159.26 32 C159.26 53.42, 159.26 74.83, 159.26 112.46 M159.26 32 C159.26 49.66, 159.26 67.33, 159.26 112.46 M159.26 112.46 C159.26 133.79, 148.59 144.46, 127.26 144.46 M159.26 112.46 C159.26 133.79, 148.59 144.46, 127.26 144.46 M127.26 144.46 C98.54 144.46, 69.83 144.46, 32 144.46 M127.26 144.46 C89.81 144.46, 52.35 144.46, 32 144.46 M32 144.46 C10.67 144.46, 0 133.79, 0 112.46 M32 144.46 C10.67 144.46, 0 133.79, 0 112.46 M0 112.46 C0 93.11, 0 73.76, 0 32 M0 112.46 C0 82.61, 0 52.75, 0 32 M0 32 C0 10.67, 10.67 0, 32 0 M0 32 C0 10.67, 10.67 0, 32 0" stroke="#1971c2" stroke-width="1" fill="none"></path></g><g stroke-linecap="round" transform="translate(1220.7845176072542 134.15909146266154) rotate(0 79.6294897239552 72.23028935137535)"><path d="M32 0 M32 0 C54.02 0, 76.04 0, 127.26 0 M32 0 C53.03 0, 74.07 0, 127.26 0 M127.26 0 C148.59 0, 159.26 10.67, 159.26 32 M127.26 0 C148.59 0, 159.26 10.67, 159.26 32 M159.26 32 C159.26 61.99, 159.26 91.98, 159.26 112.46 M159.26 32 C159.26 62.46, 159.26 92.91, 159.26 112.46 M159.26 112.46 C159.26 133.79, 148.59 144.46, 127.26 144.46 M159.26 112.46 C159.26 133.79, 148.59 144.46, 127.26 144.46 M127.26 144.46 C91.31 144.46, 55.36 144.46, 32 144.46 M127.26 144.46 C101.75 144.46, 76.25 144.46, 32 144.46 M32 144.46 C10.67 144.46, 0 133.79, 0 112.46 M32 144.46 C10.67 144.46, 0 133.79, 0 112.46 M0 112.46 C0 86.4, 0 60.34, 0 32 M0 112.46 C0 84.75, 0 57.04, 0 32 M0 32 C0 10.67, 10.67 0, 32 0 M0 32 C0 10.67, 10.67 0, 32 0" stroke="#1971c2" stroke-width="1" fill="none"></path></g><g stroke-linecap="round" transform="translate(1224.4423458593287 306.2368139096502) rotate(0 79.6294897239552 72.23028935137535)"><path d="M32 0 M32 0 C54.22 0, 76.45 0, 127.26 0 M32 0 C51.84 0, 71.68 0, 127.26 0 M127.26 0 C148.59 0, 159.26 10.67, 159.26 32 M127.26 0 C148.59 0, 159.26 10.67, 159.26 32 M159.26 32 C159.26 57.52, 159.26 83.04, 159.26 112.46 M159.26 32 C159.26 49.3, 159.26 66.59, 159.26 112.46 M159.26 112.46 C159.26 133.79, 148.59 144.46, 127.26 144.46 M159.26 112.46 C159.26 133.79, 148.59 144.46, 127.26 144.46 M127.26 144.46 C96.02 144.46, 64.78 144.46, 32 144.46 M127.26 144.46 C93.98 144.46, 60.71 144.46, 32 144.46 M32 144.46 C10.67 144.46, 0 133.79, 0 112.46 M32 144.46 C10.67 144.46, 0 133.79, 0 112.46 M0 112.46 C0 86.63, 0 60.79, 0 32 M0 112.46 C0 89.47, 0 66.49, 0 32 M0 32 C0 10.67, 10.67 0, 32 0 M0 32 C0 10.67, 10.67 0, 32 0" stroke="#1971c2" stroke-width="1" fill="none"></path></g><g stroke-linecap="round" transform="translate(1419.774698048711 315.53212815988036) rotate(0 79.6294897239552 72.23028935137535)"><path d="M32 0 M32 0 C62.74 0, 93.48 0, 127.26 0 M32 0 C58.6 0, 85.2 0, 127.26 0 M127.26 0 C148.59 0, 159.26 10.67, 159.26 32 M127.26 0 C148.59 0, 159.26 10.67, 159.26 32 M159.26 32 C159.26 53.98, 159.26 75.97, 159.26 112.46 M159.26 32 C159.26 60.87, 159.26 89.74, 159.26 112.46 M159.26 112.46 C159.26 133.79, 148.59 144.46, 127.26 144.46 M159.26 112.46 C159.26 133.79, 148.59 144.46, 127.26 144.46 M127.26 144.46 C102.74 144.46, 78.22 144.46, 32 144.46 M127.26 144.46 C98.2 144.46, 69.13 144.46, 32 144.46 M32 144.46 C10.67 144.46, 0 133.79, 0 112.46 M32 144.46 C10.67 144.46, 0 133.79, 0 112.46 M0 112.46 C0 92.49, 0 72.53, 0 32 M0 112.46 C0 94.74, 0 77.03, 0 32 M0 32 C0 10.67, 10.67 0, 32 0 M0 32 C0 10.67, 10.67 0, 32 0" stroke="#1971c2" stroke-width="1" fill="none"></path></g><g stroke-linecap="round" transform="translate(1620.74453623625 307.91498441564283) rotate(0 79.6294897239552 72.2302893513754)"><path d="M32 0 M32 0 C53.13 0, 74.25 0, 127.26 0 M32 0 C56.96 0, 81.93 0, 127.26 0 M127.26 0 C148.59 0, 159.26 10.67, 159.26 32 M127.26 0 C148.59 0, 159.26 10.67, 159.26 32 M159.26 32 C159.26 50.5, 159.26 69, 159.26 112.46 M159.26 32 C159.26 58.52, 159.26 85.04, 159.26 112.46 M159.26 112.46 C159.26 133.79, 148.59 144.46, 127.26 144.46 M159.26 112.46 C159.26 133.79, 148.59 144.46, 127.26 144.46 M127.26 144.46 C104.07 144.46, 80.88 144.46, 32 144.46 M127.26 144.46 C91.65 144.46, 56.04 144.46, 32 144.46 M32 144.46 C10.67 144.46, 0 133.79, 0 112.46 M32 144.46 C10.67 144.46, 0 133.79, 0 112.46 M0 112.46 C0 80.81, 0 49.16, 0 32 M0 112.46 C0 93.63, 0 74.8, 0 32 M0 32 C0 10.67, 10.67 0, 32 0 M0 32 C0 10.67, 10.67 0, 32 0" stroke="#1971c2" stroke-width="1" fill="none"></path></g><g stroke-linecap="round" transform="translate(1615.3758492445468 134.8310889787955) rotate(0 79.6294897239552 72.23028935137535)"><path d="M32 0 M32 0 C69.99 0, 107.98 0, 127.26 0 M32 0 C54.31 0, 76.63 0, 127.26 0 M127.26 0 C148.59 0, 159.26 10.67, 159.26 32 M127.26 0 C148.59 0, 159.26 10.67, 159.26 32 M159.26 32 C159.26 63.39, 159.26 94.78, 159.26 112.46 M159.26 32 C159.26 56.87, 159.26 81.74, 159.26 112.46 M159.26 112.46 C159.26 133.79, 148.59 144.46, 127.26 144.46 M159.26 112.46 C159.26 133.79, 148.59 144.46, 127.26 144.46 M127.26 144.46 C97.5 144.46, 67.73 144.46, 32 144.46 M127.26 144.46 C98.11 144.46, 68.96 144.46, 32 144.46 M32 144.46 C10.67 144.46, 0 133.79, 0 112.46 M32 144.46 C10.67 144.46, 0 133.79, 0 112.46 M0 112.46 C0 85.51, 0 58.55, 0 32 M0 112.46 C0 90.98, 0 69.5, 0 32 M0 32 C0 10.67, 10.67 0, 32 0 M0 32 C0 10.67, 10.67 0, 32 0" stroke="#1971c2" stroke-width="1" fill="none"></path></g><g stroke-linecap="round" transform="translate(1137.8038721527573 522.5755699935918) rotate(0 361.5884855051165 278.5686990782667)"><path d="M32 0 M32 0 C205.56 0, 379.12 0, 691.18 0 M32 0 C231.85 0, 431.7 0, 691.18 0 M691.18 0 C712.51 0, 723.18 10.67, 723.18 32 M691.18 0 C712.51 0, 723.18 10.67, 723.18 32 M723.18 32 C723.18 226.65, 723.18 421.3, 723.18 525.14 M723.18 32 C723.18 173.12, 723.18 314.24, 723.18 525.14 M723.18 525.14 C723.18 546.47, 712.51 557.14, 691.18 557.14 M723.18 525.14 C723.18 546.47, 712.51 557.14, 691.18 557.14 M691.18 557.14 C546.66 557.14, 402.14 557.14, 32 557.14 M691.18 557.14 C486.55 557.14, 281.93 557.14, 32 557.14 M32 557.14 C10.67 557.14, 0 546.47, 0 525.14 M32 557.14 C10.67 557.14, 0 546.47, 0 525.14 M0 525.14 C0 337.78, 0 150.42, 0 32 M0 525.14 C0 358.36, 0 191.59, 0 32 M0 32 C0 10.67, 10.67 0, 32 0 M0 32 C0 10.67, 10.67 0, 32 0" stroke="#1971c2" stroke-width="1" fill="none"></path></g><g stroke-linecap="round" transform="translate(1227.6969756017224 582.2048288128468) rotate(0 298.08207215250513 23.606972617278757)"><path d="M11.8 0 M11.8 0 C187.61 0, 363.42 0, 584.36 0 M11.8 0 C182.43 0, 353.05 0, 584.36 0 M584.36 0 C592.23 0, 596.16 3.93, 596.16 11.8 M584.36 0 C592.23 0, 596.16 3.93, 596.16 11.8 M596.16 11.8 C596.16 20.31, 596.16 28.82, 596.16 35.41 M596.16 11.8 C596.16 17.34, 596.16 22.87, 596.16 35.41 M596.16 35.41 C596.16 43.28, 592.23 47.21, 584.36 47.21 M596.16 35.41 C596.16 43.28, 592.23 47.21, 584.36 47.21 M584.36 47.21 C428.1 47.21, 271.83 47.21, 11.8 47.21 M584.36 47.21 C402.23 47.21, 220.11 47.21, 11.8 47.21 M11.8 47.21 C3.93 47.21, 0 43.28, 0 35.41 M11.8 47.21 C3.93 47.21, 0 43.28, 0 35.41 M0 35.41 C0 26.79, 0 18.17, 0 11.8 M0 35.41 C0 26.05, 0 16.69, 0 11.8 M0 11.8 C0 3.93, 3.93 0, 11.8 0 M0 11.8 C0 3.93, 3.93 0, 11.8 0" stroke="#1971c2" stroke-width="1" fill="none"></path></g><g stroke-linecap="round" transform="translate(1389.774698048711 649.8546607907205) rotate(0 146.57463595205923 54.613145607137426)"><path d="M27.31 0 M27.31 0 C81.67 0, 136.04 0, 265.84 0 M27.31 0 C97.81 0, 168.31 0, 265.84 0 M265.84 0 C284.05 0, 293.15 9.1, 293.15 27.31 M265.84 0 C284.05 0, 293.15 9.1, 293.15 27.31 M293.15 27.31 C293.15 44.79, 293.15 62.27, 293.15 81.92 M293.15 27.31 C293.15 48.35, 293.15 69.39, 293.15 81.92 M293.15 81.92 C293.15 100.12, 284.05 109.23, 265.84 109.23 M293.15 81.92 C293.15 100.12, 284.05 109.23, 265.84 109.23 M265.84 109.23 C189.7 109.23, 113.56 109.23, 27.31 109.23 M265.84 109.23 C191.64 109.23, 117.43 109.23, 27.31 109.23 M27.31 109.23 C9.1 109.23, 0 100.12, 0 81.92 M27.31 109.23 C9.1 109.23, 0 100.12, 0 81.92 M0 81.92 C0 65.21, 0 48.5, 0 27.31 M0 81.92 C0 67.11, 0 52.3, 0 27.31 M0 27.31 C0 9.1, 9.1 0, 27.31 0 M0 27.31 C0 9.1, 9.1 0, 27.31 0" stroke="#1971c2" stroke-width="1" fill="none"></path></g><g stroke-linecap="round" transform="translate(1191.3411678300513 786.5636962460059) rotate(0 315.9076331634559 58.4889172308699)"><path d="M29.24 0 M29.24 0 C190 0, 350.75 0, 602.57 0 M29.24 0 C213.82 0, 398.39 0, 602.57 0 M602.57 0 C622.07 0, 631.82 9.75, 631.82 29.24 M602.57 0 C622.07 0, 631.82 9.75, 631.82 29.24 M631.82 29.24 C631.82 51.05, 631.82 72.85, 631.82 87.73 M631.82 29.24 C631.82 52.25, 631.82 75.25, 631.82 87.73 M631.82 87.73 C631.82 107.23, 622.07 116.98, 602.57 116.98 M631.82 87.73 C631.82 107.23, 622.07 116.98, 602.57 116.98 M602.57 116.98 C482.13 116.98, 361.69 116.98, 29.24 116.98 M602.57 116.98 C402.91 116.98, 203.26 116.98, 29.24 116.98 M29.24 116.98 C9.75 116.98, 0 107.23, 0 87.73 M29.24 116.98 C9.75 116.98, 0 107.23, 0 87.73 M0 87.73 C0 75.01, 0 62.28, 0 29.24 M0 87.73 C0 68.55, 0 49.37, 0 29.24 M0 29.24 C0 9.75, 9.75 0, 29.24 0 M0 29.24 C0 9.75, 9.75 0, 29.24 0" stroke="#1971c2" stroke-width="1" fill="none"></path></g><g transform="translate(1440.3545967973778 601.2313440566237) rotate(0 19.183990478515625 10)"><text x="19.183990478515625" y="0" font-family="Virgil, Segoe UI Emoji" font-size="16px" fill="#1971c2" text-anchor="middle" style="white-space: pre;" direction="ltr" dominant-baseline="text-before-edge">Title</text></g><g transform="translate(1468.8101498316973 699.1826632745864) rotate(0 23.14398193359375 10)"><text x="23.14398193359375" y="0" font-family="Virgil, Segoe UI Emoji" font-size="16px" fill="#1971c2" text-anchor="middle" style="white-space: pre;" direction="ltr" dominant-baseline="text-before-edge">Image</text></g><g transform="translate(1413.5635159176827 843.6432419773367) rotate(0 30.47198486328125 10)"><text x="30.47198486328125" y="0" font-family="Virgil, Segoe UI Emoji" font-size="16px" fill="#1971c2" text-anchor="middle" style="white-space: pre;" direction="ltr" dominant-baseline="text-before-edge">Content</text></g><g stroke-linecap="round" transform="translate(1234.0391473496484 995.1506781777824) rotate(0 44.04285936059466 19.731200993546395)"><path d="M9.87 0 M9.87 0 C32.09 0, 54.31 0, 78.22 0 M9.87 0 C28.51 0, 47.15 0, 78.22 0 M78.22 0 C84.8 0, 88.09 3.29, 88.09 9.87 M78.22 0 C84.8 0, 88.09 3.29, 88.09 9.87 M88.09 9.87 C88.09 13.94, 88.09 18.02, 88.09 29.6 M88.09 9.87 C88.09 14.33, 88.09 18.8, 88.09 29.6 M88.09 29.6 C88.09 36.17, 84.8 39.46, 78.22 39.46 M88.09 29.6 C88.09 36.17, 84.8 39.46, 78.22 39.46 M78.22 39.46 C58.36 39.46, 38.49 39.46, 9.87 39.46 M78.22 39.46 C51.64 39.46, 25.06 39.46, 9.87 39.46 M9.87 39.46 C3.29 39.46, 0 36.17, 0 29.6 M9.87 39.46 C3.29 39.46, 0 36.17, 0 29.6 M0 29.6 C0 23.42, 0 17.23, 0 9.87 M0 29.6 C0 25.39, 0 21.18, 0 9.87 M0 9.87 C0 3.29, 3.29 0, 9.87 0 M0 9.87 C0 3.29, 3.29 0, 9.87 0" stroke="#1971c2" stroke-width="1" fill="none"></path></g><g stroke-linecap="round" transform="translate(1720.9770004403836 995.1506781777824) rotate(0 47.56628810944221 21.14057249308553)"><path d="M10.57 0 M10.57 0 C29.56 0, 48.55 0, 84.56 0 M10.57 0 C38.66 0, 66.75 0, 84.56 0 M84.56 0 C91.61 0, 95.13 3.52, 95.13 10.57 M84.56 0 C91.61 0, 95.13 3.52, 95.13 10.57 M95.13 10.57 C95.13 18.11, 95.13 25.65, 95.13 31.71 M95.13 10.57 C95.13 15.66, 95.13 20.75, 95.13 31.71 M95.13 31.71 C95.13 38.76, 91.61 42.28, 84.56 42.28 M95.13 31.71 C95.13 38.76, 91.61 42.28, 84.56 42.28 M84.56 42.28 C59.67 42.28, 34.77 42.28, 10.57 42.28 M84.56 42.28 C55.4 42.28, 26.24 42.28, 10.57 42.28 M10.57 42.28 C3.52 42.28, 0 38.76, 0 31.71 M10.57 42.28 C3.52 42.28, 0 38.76, 0 31.71 M0 31.71 C0 23.72, 0 15.73, 0 10.57 M0 31.71 C0 26.03, 0 20.34, 0 10.57 M0 10.57 C0 3.52, 3.52 0, 10.57 0 M0 10.57 C0 3.52, 3.52 0, 10.57 0" stroke="#1971c2" stroke-width="1" fill="none"></path></g><g stroke-linecap="round"><g transform="translate(1210.0798318574848 212.94949593362048) rotate(0 -81.29154126168055 161.69755296278373)"><path d="M0 0 C-26.78 42.16, -145.92 199.08, -160.67 252.98 C-175.42 306.88, -100.51 311.66, -88.48 323.4 M0 0 C-26.78 42.16, -145.92 199.08, -160.67 252.98 C-175.42 306.88, -100.51 311.66, -88.48 323.4" stroke="#1971c2" stroke-width="1" fill="none"></path></g><g transform="translate(1210.0798318574848 212.94949593362048) rotate(0 -81.29154126168055 161.69755296278373)"><path d="M-118.43 321.67 C-110.76 322.11, -103.09 322.55, -88.48 323.4 M-118.43 321.67 C-107.86 322.28, -97.28 322.89, -88.48 323.4" stroke="#1971c2" stroke-width="1" fill="none"></path></g><g transform="translate(1210.0798318574848 212.94949593362048) rotate(0 -81.29154126168055 161.69755296278373)"><path d="M-110.32 302.82 C-104.73 308.09, -99.13 313.36, -88.48 323.4 M-110.32 302.82 C-102.61 310.09, -94.9 317.35, -88.48 323.4" stroke="#1971c2" stroke-width="1" fill="none"></path></g></g><mask></mask><g stroke-linecap="round" transform="translate(1209.3751461077154 86.10606097510765) rotate(0 60.95531735506313 15.15074362004458)"><path d="M2.02 1.75 C2.02 1.75, 2.02 1.75, 2.02 1.75 M2.02 1.75 C2.02 1.75, 2.02 1.75, 2.02 1.75 M1.1 8.91 C3.51 6.13, 5.92 3.36, 8.32 0.6 M1.1 8.91 C2.77 6.99, 4.43 5.07, 8.32 0.6 M1.49 14.55 C5.72 9.69, 9.95 4.82, 13.3 0.96 M1.49 14.55 C4.15 11.5, 6.8 8.45, 13.3 0.96 M1.89 20.19 C5.56 15.97, 9.23 11.75, 18.95 0.57 M1.89 20.19 C6.72 14.63, 11.55 9.08, 18.95 0.57 M1.63 26.59 C7.07 20.33, 12.51 14.07, 23.93 0.93 M1.63 26.59 C7.45 19.89, 13.27 13.2, 23.93 0.93 M3.99 29.97 C13.71 18.79, 23.43 7.61, 29.58 0.53 M3.99 29.97 C12.64 20.02, 21.29 10.06, 29.58 0.53 M7.01 32.59 C16.2 22.02, 25.38 11.45, 34.56 0.89 M7.01 32.59 C17.86 20.11, 28.7 7.63, 34.56 0.89 M12.65 32.2 C20.05 23.69, 27.45 15.18, 40.21 0.5 M12.65 32.2 C20.27 23.43, 27.9 14.66, 40.21 0.5 M17.64 32.56 C28.11 20.51, 38.59 8.46, 45.19 0.86 M17.64 32.56 C28.06 20.57, 38.48 8.58, 45.19 0.86 M23.28 32.16 C33.56 20.34, 43.84 8.51, 50.84 0.47 M23.28 32.16 C31.64 22.55, 40 12.93, 50.84 0.47 M28.27 32.52 C34.87 24.93, 41.47 17.34, 55.82 0.83 M28.27 32.52 C34.97 24.82, 41.66 17.11, 55.82 0.83 M33.91 32.13 C42.99 21.69, 52.06 11.25, 60.81 1.19 M33.91 32.13 C40.53 24.52, 47.15 16.9, 60.81 1.19 M38.9 32.49 C49.05 20.81, 59.2 9.14, 66.45 0.79 M38.9 32.49 C49.66 20.11, 60.42 7.74, 66.45 0.79 M43.89 32.85 C50.95 24.73, 58.01 16.61, 71.44 1.15 M43.89 32.85 C50.94 24.73, 58 16.62, 71.44 1.15 M49.53 32.45 C58.48 22.16, 67.43 11.86, 77.08 0.76 M49.53 32.45 C57.68 23.07, 65.84 13.69, 77.08 0.76 M54.52 32.81 C64.89 20.88, 75.26 8.95, 82.07 1.12 M54.52 32.81 C63.01 23.04, 71.5 13.27, 82.07 1.12 M60.16 32.42 C67.58 23.88, 75 15.34, 87.71 0.72 M60.16 32.42 C65.9 25.81, 71.65 19.2, 87.71 0.72 M65.15 32.78 C76.07 20.21, 86.99 7.65, 92.7 1.08 M65.15 32.78 C73.44 23.24, 81.73 13.71, 92.7 1.08 M70.79 32.39 C78.04 24.04, 85.29 15.7, 98.34 0.69 M70.79 32.39 C77.69 24.44, 84.6 16.5, 98.34 0.69 M75.78 32.75 C85.86 21.15, 95.94 9.55, 103.33 1.05 M75.78 32.75 C85.57 21.48, 95.36 10.21, 103.33 1.05 M81.42 32.35 C91.36 20.92, 101.3 9.48, 108.32 1.41 M81.42 32.35 C89.97 22.51, 98.53 12.67, 108.32 1.41 M86.41 32.71 C97.05 20.47, 107.69 8.23, 113.96 1.01 M86.41 32.71 C95.15 22.66, 103.88 12.6, 113.96 1.01 M91.39 33.07 C101.12 21.88, 110.85 10.69, 118.95 1.37 M91.39 33.07 C101.87 21.02, 112.34 8.97, 118.95 1.37 M97.04 32.68 C104.57 24.01, 112.1 15.34, 121.31 4.75 M97.04 32.68 C103.21 25.57, 109.39 18.46, 121.31 4.75 M102.02 33.04 C109.5 24.43, 116.98 15.83, 121.7 10.4 M102.02 33.04 C109.5 24.44, 116.97 15.84, 121.7 10.4 M107.67 32.64 C111.01 28.79, 114.36 24.94, 121.44 16.79 M107.67 32.64 C112.62 26.94, 117.57 21.25, 121.44 16.79 M114.62 30.74 C116.92 28.1, 119.21 25.46, 121.84 22.44 M114.62 30.74 C117.02 27.97, 119.43 25.21, 121.84 22.44" stroke="#be4bdb" stroke-width="0.5" fill="none"></path><path d="M7.58 0 M7.58 0 C33.18 0, 58.79 0, 114.34 0 M7.58 0 C34 0, 60.42 0, 114.34 0 M114.34 0 C119.39 0, 121.91 2.53, 121.91 7.58 M114.34 0 C119.39 0, 121.91 2.53, 121.91 7.58 M121.91 7.58 C121.91 12.95, 121.91 18.32, 121.91 22.73 M121.91 7.58 C121.91 10.92, 121.91 14.26, 121.91 22.73 M121.91 22.73 C121.91 27.78, 119.39 30.3, 114.34 30.3 M121.91 22.73 C121.91 27.78, 119.39 30.3, 114.34 30.3 M114.34 30.3 C87.03 30.3, 59.72 30.3, 7.58 30.3 M114.34 30.3 C84.18 30.3, 54.03 30.3, 7.58 30.3 M7.58 30.3 C2.53 30.3, 0 27.78, 0 22.73 M7.58 30.3 C2.53 30.3, 0 27.78, 0 22.73 M0 22.73 C0 17.12, 0 11.51, 0 7.58 M0 22.73 C0 19.42, 0 16.11, 0 7.58 M0 7.58 C0 2.53, 2.53 0, 7.58 0 M0 7.58 C0 2.53, 2.53 0, 7.58 0" stroke="#1971c2" stroke-width="1" fill="none"></path></g><g transform="translate(1222.7704964217628 91.25680459515218) rotate(0 47.559967041015625 10)"><text x="47.559967041015625" y="0" font-family="Virgil, Segoe UI Emoji" font-size="16px" fill="#1971c2" text-anchor="middle" style="white-space: pre;" direction="ltr" dominant-baseline="text-before-edge">Create Blog</text></g><g stroke-linecap="round"><g transform="translate(1203.03297435979 101.60914747003699) rotate(0 -221.97601117739737 -5.287048410585612)"><path d="M0 0 C-34.76 -1.76, -134.59 -10.37, -208.59 -10.57 C-282.58 -10.77, -404.72 -2.78, -443.95 -1.22 M0 0 C-34.76 -1.76, -134.59 -10.37, -208.59 -10.57 C-282.58 -10.77, -404.72 -2.78, -443.95 -1.22" stroke="#1971c2" stroke-width="1" fill="none"></path></g><g transform="translate(1203.03297435979 101.60914747003699) rotate(0 -221.97601117739737 -5.287048410585612)"><path d="M-416.32 -12.89 C-427.24 -8.28, -438.16 -3.67, -443.95 -1.22 M-416.32 -12.89 C-423.35 -9.92, -430.39 -6.95, -443.95 -1.22" stroke="#1971c2" stroke-width="1" fill="none"></path></g><g transform="translate(1203.03297435979 101.60914747003699) rotate(0 -221.97601117739737 -5.287048410585612)"><path d="M-415.28 7.6 C-426.61 4.11, -437.95 0.63, -443.95 -1.22 M-415.28 7.6 C-422.58 5.36, -429.88 3.11, -443.95 -1.22" stroke="#1971c2" stroke-width="1" fill="none"></path></g></g><mask></mask><g stroke-linecap="round" transform="translate(10 10) rotate(0 373.4834473778432 239.2408120467506)"><path d="M32 0 M32 0 C243.96 0, 455.93 0, 714.97 0 M32 0 C198.77 0, 365.54 0, 714.97 0 M714.97 0 C736.3 0, 746.97 10.67, 746.97 32 M714.97 0 C736.3 0, 746.97 10.67, 746.97 32 M746.97 32 C746.97 125.81, 746.97 219.63, 746.97 446.48 M746.97 32 C746.97 140.94, 746.97 249.88, 746.97 446.48 M746.97 446.48 C746.97 467.81, 736.3 478.48, 714.97 478.48 M746.97 446.48 C746.97 467.81, 736.3 478.48, 714.97 478.48 M714.97 478.48 C574.9 478.48, 434.84 478.48, 32 478.48 M714.97 478.48 C447.54 478.48, 180.12 478.48, 32 478.48 M32 478.48 C10.67 478.48, 0 467.81, 0 446.48 M32 478.48 C10.67 478.48, 0 467.81, 0 446.48 M0 446.48 C0 361.56, 0 276.63, 0 32 M0 446.48 C0 308.2, 0 169.92, 0 32 M0 32 C0 10.67, 10.67 0, 32 0 M0 32 C0 10.67, 10.67 0, 32 0" stroke="#1971c2" stroke-width="1" fill="none"></path></g><g stroke-linecap="round" transform="translate(177.71520844514464 33.95931549216357) rotate(0 212.11041068062417 24.311658367048267)"><path d="M12.16 0 M12.16 0 C105.88 0, 199.61 0, 412.06 0 M12.16 0 C116.71 0, 221.27 0, 412.06 0 M412.06 0 C420.17 0, 424.22 4.05, 424.22 12.16 M412.06 0 C420.17 0, 424.22 4.05, 424.22 12.16 M424.22 12.16 C424.22 19.99, 424.22 27.82, 424.22 36.47 M424.22 12.16 C424.22 18.98, 424.22 25.8, 424.22 36.47 M424.22 36.47 C424.22 44.57, 420.17 48.62, 412.06 48.62 M424.22 36.47 C424.22 44.57, 420.17 48.62, 412.06 48.62 M412.06 48.62 C313.48 48.62, 214.9 48.62, 12.16 48.62 M412.06 48.62 C297.91 48.62, 183.75 48.62, 12.16 48.62 M12.16 48.62 C4.05 48.62, 0 44.57, 0 36.47 M12.16 48.62 C4.05 48.62, 0 44.57, 0 36.47 M0 36.47 C0 27.44, 0 18.41, 0 12.16 M0 36.47 C0 27.23, 0 18, 0 12.16 M0 12.16 C0 4.05, 4.05 0, 12.16 0 M0 12.16 C0 4.05, 4.05 0, 12.16 0" stroke="#1971c2" stroke-width="1" fill="none"></path></g><g transform="translate(314.04418171159705 48.05303048755388) rotate(0 70.14395141601562 10)"><text x="70.14395141601562" y="0" font-family="Virgil, Segoe UI Emoji" font-size="16px" fill="#1971c2" text-anchor="middle" style="white-space: pre;" direction="ltr" dominant-baseline="text-before-edge">Create Blog Post</text></g><g stroke-linecap="round" transform="translate(54.39520223547942 119.93097696404436) rotate(0 207.52995330712233 12.684343495851294)"><path d="M6.34 0 M6.34 0 C87.2 0, 168.07 0, 408.72 0 M6.34 0 C131.35 0, 256.36 0, 408.72 0 M408.72 0 C412.95 0, 415.06 2.11, 415.06 6.34 M408.72 0 C412.95 0, 415.06 2.11, 415.06 6.34 M415.06 6.34 C415.06 8.92, 415.06 11.5, 415.06 19.03 M415.06 6.34 C415.06 8.91, 415.06 11.48, 415.06 19.03 M415.06 19.03 C415.06 23.25, 412.95 25.37, 408.72 25.37 M415.06 19.03 C415.06 23.25, 412.95 25.37, 408.72 25.37 M408.72 25.37 C256.73 25.37, 104.74 25.37, 6.34 25.37 M408.72 25.37 C302.27 25.37, 195.82 25.37, 6.34 25.37 M6.34 25.37 C2.11 25.37, 0 23.25, 0 19.03 M6.34 25.37 C2.11 25.37, 0 23.25, 0 19.03 M0 19.03 C0 14.93, 0 10.84, 0 6.34 M0 19.03 C0 14.95, 0 10.88, 0 6.34 M0 6.34 C0 2.11, 2.11 0, 6.34 0 M0 6.34 C0 2.11, 2.11 0, 6.34 0" stroke="#1971c2" stroke-width="1" fill="none"></path></g><g stroke-linecap="round" transform="translate(53.824915988936766 167.27932170182874) rotate(0 207.52995330712233 12.684343495851294)"><path d="M6.34 0 M6.34 0 C108.74 0, 211.14 0, 408.72 0 M6.34 0 C118.68 0, 231.02 0, 408.72 0 M408.72 0 C412.95 0, 415.06 2.11, 415.06 6.34 M408.72 0 C412.95 0, 415.06 2.11, 415.06 6.34 M415.06 6.34 C415.06 8.91, 415.06 11.47, 415.06 19.03 M415.06 6.34 C415.06 10.95, 415.06 15.55, 415.06 19.03 M415.06 19.03 C415.06 23.25, 412.95 25.37, 408.72 25.37 M415.06 19.03 C415.06 23.25, 412.95 25.37, 408.72 25.37 M408.72 25.37 C301.09 25.37, 193.46 25.37, 6.34 25.37 M408.72 25.37 C278.14 25.37, 147.57 25.37, 6.34 25.37 M6.34 25.37 C2.11 25.37, 0 23.25, 0 19.03 M6.34 25.37 C2.11 25.37, 0 23.25, 0 19.03 M0 19.03 C0 15.47, 0 11.91, 0 6.34 M0 19.03 C0 14.56, 0 10.1, 0 6.34 M0 6.34 C0 2.11, 2.11 0, 6.34 0 M0 6.34 C0 2.11, 2.11 0, 6.34 0" stroke="#1971c2" stroke-width="1" fill="none"></path></g><g stroke-linecap="round" transform="translate(492.709738592118 94.56228997234189) rotate(0 107.46457683985113 59.54594585552405)"><path d="M29.77 0 M29.77 0 C75.41 0, 121.04 0, 185.16 0 M29.77 0 C70.59 0, 111.4 0, 185.16 0 M185.16 0 C205 0, 214.93 9.92, 214.93 29.77 M185.16 0 C205 0, 214.93 9.92, 214.93 29.77 M214.93 29.77 C214.93 45.38, 214.93 60.99, 214.93 89.32 M214.93 29.77 C214.93 52.14, 214.93 74.51, 214.93 89.32 M214.93 89.32 C214.93 109.17, 205 119.09, 185.16 119.09 M214.93 89.32 C214.93 109.17, 205 119.09, 185.16 119.09 M185.16 119.09 C147.86 119.09, 110.56 119.09, 29.77 119.09 M185.16 119.09 C149.98 119.09, 114.81 119.09, 29.77 119.09 M29.77 119.09 C9.92 119.09, 0 109.17, 0 89.32 M29.77 119.09 C9.92 119.09, 0 109.17, 0 89.32 M0 89.32 C0 72, 0 54.69, 0 29.77 M0 89.32 C0 72.34, 0 55.36, 0 29.77 M0 29.77 C0 9.92, 9.92 0, 29.77 0 M0 29.77 C0 9.92, 9.92 0, 29.77 0" stroke="#1971c2" stroke-width="1" fill="none"></path></g><g transform="translate(554.9103460105824 144.108235827866) rotate(0 45.26396942138672 10)"><text x="45.26396942138672" y="0" font-family="Virgil, Segoe UI Emoji" font-size="16px" fill="#1971c2" text-anchor="middle" style="white-space: pre;" direction="ltr" dominant-baseline="text-before-edge">Show Image</text></g><g stroke-linecap="round" transform="translate(43.82491598893671 222.81509643039374) rotate(0 336.4874455149438 50.03268823363561)"><path d="M25.02 0 M25.02 0 C154 0, 282.99 0, 647.96 0 M25.02 0 C218.81 0, 412.6 0, 647.96 0 M647.96 0 C664.64 0, 672.97 8.34, 672.97 25.02 M647.96 0 C664.64 0, 672.97 8.34, 672.97 25.02 M672.97 25.02 C672.97 43.79, 672.97 62.56, 672.97 75.05 M672.97 25.02 C672.97 37.36, 672.97 49.7, 672.97 75.05 M672.97 75.05 C672.97 91.73, 664.64 100.07, 647.96 100.07 M672.97 75.05 C672.97 91.73, 664.64 100.07, 647.96 100.07 M647.96 100.07 C414.55 100.07, 181.14 100.07, 25.02 100.07 M647.96 100.07 C404.33 100.07, 160.71 100.07, 25.02 100.07 M25.02 100.07 C8.34 100.07, 0 91.73, 0 75.05 M25.02 100.07 C8.34 100.07, 0 91.73, 0 75.05 M0 75.05 C0 55.53, 0 36.01, 0 25.02 M0 75.05 C0 59.91, 0 44.76, 0 25.02 M0 25.02 C0 8.34, 8.34 0, 25.02 0 M0 25.02 C0 8.34, 8.34 0, 25.02 0" stroke="#1971c2" stroke-width="1" fill="none"></path></g><g transform="translate(65.31064431122104 126.97783446173958) rotate(0 17.271987915039062 10)"><text x="17.271987915039062" y="0" font-family="Virgil, Segoe UI Emoji" font-size="16px" fill="#1971c2" text-anchor="middle" style="white-space: pre;" direction="ltr" dominant-baseline="text-before-edge">title</text></g><g transform="translate(63.70311329201752 176.30583694560573) rotate(0 35.79197692871094 10)"><text x="35.79197692871094" y="0" font-family="Virgil, Segoe UI Emoji" font-size="16px" fill="#1971c2" text-anchor="middle" style="white-space: pre;" direction="ltr" dominant-baseline="text-before-edge">image Url</text></g><g transform="translate(118.07773029929376 253.1165836704829) rotate(0 29.33599090576172 10)"><text x="29.33599090576172" y="0" font-family="Virgil, Segoe UI Emoji" font-size="16px" fill="#1971c2" text-anchor="middle" style="white-space: pre;" direction="ltr" dominant-baseline="text-before-edge">content</text></g><g stroke-linecap="round" transform="translate(41.71085873962818 334.86013064374686) rotate(0 167.36286557025988 15)"><path d="M7.5 0 M7.5 0 C78.36 0, 149.22 0, 327.23 0 M7.5 0 C77.95 0, 148.4 0, 327.23 0 M327.23 0 C332.23 0, 334.73 2.5, 334.73 7.5 M327.23 0 C332.23 0, 334.73 2.5, 334.73 7.5 M334.73 7.5 C334.73 11.44, 334.73 15.38, 334.73 22.5 M334.73 7.5 C334.73 12.47, 334.73 17.45, 334.73 22.5 M334.73 22.5 C334.73 27.5, 332.23 30, 327.23 30 M334.73 22.5 C334.73 27.5, 332.23 30, 327.23 30 M327.23 30 C238.78 30, 150.32 30, 7.5 30 M327.23 30 C226.72 30, 126.22 30, 7.5 30 M7.5 30 C2.5 30, 0 27.5, 0 22.5 M7.5 30 C2.5 30, 0 27.5, 0 22.5 M0 22.5 C0 18.99, 0 15.48, 0 7.5 M0 22.5 C0 17.51, 0 12.53, 0 7.5 M0 7.5 C0 2.5, 2.5 0, 7.5 0 M0 7.5 C0 2.5, 2.5 0, 7.5 0" stroke="#1971c2" stroke-width="1" fill="none"></path></g><g transform="translate(193.29773096272004 339.86013064374686) rotate(0 15.775993347167969 10)"><text x="15.775993347167969" y="0" font-family="Virgil, Segoe UI Emoji" font-size="16px" fill="#1971c2" text-anchor="middle" style="white-space: pre;" direction="ltr" dominant-baseline="text-before-edge">Tag</text></g><g stroke-linecap="round" transform="translate(387.1412756299177 334.9945301469735) rotate(0 167.36286557025994 15)"><path d="M7.5 0 M7.5 0 C80.4 0, 153.3 0, 327.23 0 M7.5 0 C99.21 0, 190.93 0, 327.23 0 M327.23 0 C332.23 0, 334.73 2.5, 334.73 7.5 M327.23 0 C332.23 0, 334.73 2.5, 334.73 7.5 M334.73 7.5 C334.73 11.85, 334.73 16.2, 334.73 22.5 M334.73 7.5 C334.73 11.82, 334.73 16.14, 334.73 22.5 M334.73 22.5 C334.73 27.5, 332.23 30, 327.23 30 M334.73 22.5 C334.73 27.5, 332.23 30, 327.23 30 M327.23 30 C214.11 30, 100.99 30, 7.5 30 M327.23 30 C223.55 30, 119.87 30, 7.5 30 M7.5 30 C2.5 30, 0 27.5, 0 22.5 M7.5 30 C2.5 30, 0 27.5, 0 22.5 M0 22.5 C0 17.65, 0 12.8, 0 7.5 M0 22.5 C0 16.9, 0 11.29, 0 7.5 M0 7.5 C0 2.5, 2.5 0, 7.5 0 M0 7.5 C0 2.5, 2.5 0, 7.5 0" stroke="#1971c2" stroke-width="1" fill="none"></path></g><g transform="translate(540.6321471816228 339.9945301469735) rotate(0 13.871994018554688 10)"><text x="13.871994018554688" y="0" font-family="Virgil, Segoe UI Emoji" font-size="16px" fill="#1971c2" text-anchor="middle" style="white-space: pre;" direction="ltr" dominant-baseline="text-before-edge">cat</text></g><g stroke-linecap="round" transform="translate(44.52960173870622 376.43658988014806) rotate(0 218.45258242854982 15.150743620044636)"><path d="M7.58 0 M7.58 0 C99.46 0, 191.34 0, 429.33 0 M7.58 0 C105.09 0, 202.61 0, 429.33 0 M429.33 0 C434.38 0, 436.91 2.53, 436.91 7.58 M429.33 0 C434.38 0, 436.91 2.53, 436.91 7.58 M436.91 7.58 C436.91 13.16, 436.91 18.74, 436.91 22.73 M436.91 7.58 C436.91 11.22, 436.91 14.86, 436.91 22.73 M436.91 22.73 C436.91 27.78, 434.38 30.3, 429.33 30.3 M436.91 22.73 C436.91 27.78, 434.38 30.3, 429.33 30.3 M429.33 30.3 C269.91 30.3, 110.48 30.3, 7.58 30.3 M429.33 30.3 C332.31 30.3, 235.29 30.3, 7.58 30.3 M7.58 30.3 C2.53 30.3, 0 27.78, 0 22.73 M7.58 30.3 C2.53 30.3, 0 27.78, 0 22.73 M0 22.73 C0 17.44, 0 12.15, 0 7.58 M0 22.73 C0 16.9, 0 11.07, 0 7.58 M0 7.58 C0 2.53, 2.53 0, 7.58 0 M0 7.58 C0 2.53, 2.53 0, 7.58 0" stroke="#1971c2" stroke-width="1" fill="none"></path></g><g stroke-linecap="round" transform="translate(518.7831113335901 380.6647043787651) rotate(0 91.60914747003704 15.50308649492922)"><path d="M7.75 0 M7.75 0 C74.81 0, 141.86 0, 175.47 0 M7.75 0 C68.91 0, 130.08 0, 175.47 0 M175.47 0 C180.63 0, 183.22 2.58, 183.22 7.75 M175.47 0 C180.63 0, 183.22 2.58, 183.22 7.75 M183.22 7.75 C183.22 13.55, 183.22 19.35, 183.22 23.25 M183.22 7.75 C183.22 12.8, 183.22 17.86, 183.22 23.25 M183.22 23.25 C183.22 28.42, 180.63 31.01, 175.47 31.01 M183.22 23.25 C183.22 28.42, 180.63 31.01, 175.47 31.01 M175.47 31.01 C118.76 31.01, 62.06 31.01, 7.75 31.01 M175.47 31.01 C117.8 31.01, 60.13 31.01, 7.75 31.01 M7.75 31.01 C2.58 31.01, 0 28.42, 0 23.25 M7.75 31.01 C2.58 31.01, 0 28.42, 0 23.25 M0 23.25 C0 18.02, 0 12.78, 0 7.75 M0 23.25 C0 19.93, 0 16.61, 0 7.75 M0 7.75 C0 2.58, 2.58 0, 7.75 0 M0 7.75 C0 2.58, 2.58 0, 7.75 0" stroke="#1971c2" stroke-width="1" fill="none"></path></g><g transform="translate(586.1042796776505 386.16779087369434) rotate(0 24.287979125976562 10)"><text x="24.287979125976562" y="0" font-family="Virgil, Segoe UI Emoji" font-size="16px" fill="#1971c2" text-anchor="middle" style="white-space: pre;" direction="ltr" dominant-baseline="text-before-edge">submit</text></g><g transform="translate(188.21669932596603 390.1733863505534) rotate(0 15.519989013671875 10)"><text x="15.519989013671875" y="0" font-family="Virgil, Segoe UI Emoji" font-size="16px" fill="#1971c2" text-anchor="middle" style="white-space: pre;" direction="ltr" dominant-baseline="text-before-edge">Slug</text></g><g stroke-linecap="round" transform="translate(1686.4179498627122 537.674033444788) rotate(0 72.02575109876375 16.73474987391228)"><path d="M2.23 1.94 C2.23 1.94, 2.23 1.94, 2.23 1.94 M2.23 1.94 C2.23 1.94, 2.23 1.94, 2.23 1.94 M1.31 9.09 C2.83 7.33, 4.36 5.58, 8.53 0.79 M1.31 9.09 C3.86 6.16, 6.41 3.22, 8.53 0.79 M1.05 15.49 C4.3 11.74, 7.56 7.99, 14.17 0.39 M1.05 15.49 C5.71 10.12, 10.37 4.76, 14.17 0.39 M1.44 21.13 C7.13 14.59, 12.82 8.05, 19.16 0.75 M1.44 21.13 C6.56 15.24, 11.68 9.36, 19.16 0.75 M1.84 26.77 C7.92 19.77, 14.01 12.77, 24.8 0.36 M1.84 26.77 C9.53 17.92, 17.22 9.08, 24.8 0.36 M2.89 31.66 C12.67 20.4, 22.46 9.15, 29.79 0.72 M2.89 31.66 C13.05 19.98, 23.2 8.29, 29.79 0.72 M5.91 34.29 C12.43 26.78, 18.95 19.28, 35.43 0.32 M5.91 34.29 C17.19 21.3, 28.48 8.32, 35.43 0.32 M10.24 35.4 C20.27 23.87, 30.29 12.33, 40.42 0.68 M10.24 35.4 C18.5 25.89, 26.77 16.38, 40.42 0.68 M15.88 35.01 C26.67 22.59, 37.47 10.17, 46.06 0.29 M15.88 35.01 C25.39 24.07, 34.89 13.13, 46.06 0.29 M20.87 35.37 C29.7 25.21, 38.53 15.05, 51.05 0.65 M20.87 35.37 C32.45 22.04, 44.03 8.71, 51.05 0.65 M26.51 34.97 C36.79 23.14, 47.07 11.32, 56.69 0.25 M26.51 34.97 C37.15 22.73, 47.79 10.5, 56.69 0.25 M31.5 35.33 C40.09 25.45, 48.68 15.57, 61.68 0.61 M31.5 35.33 C42.52 22.66, 53.53 9.98, 61.68 0.61 M37.14 34.94 C47.97 22.48, 58.8 10.02, 67.32 0.22 M37.14 34.94 C43.65 27.45, 50.16 19.96, 67.32 0.22 M42.13 35.3 C48.8 27.62, 55.47 19.94, 72.31 0.58 M42.13 35.3 C48.97 27.42, 55.82 19.55, 72.31 0.58 M47.77 34.9 C54.54 27.11, 61.32 19.32, 77.95 0.19 M47.77 34.9 C54.62 27.02, 61.48 19.13, 77.95 0.19 M52.76 35.26 C64.49 21.77, 76.22 8.27, 82.94 0.55 M52.76 35.26 C59.69 27.28, 66.63 19.31, 82.94 0.55 M58.4 34.87 C66.65 25.38, 74.89 15.9, 88.58 0.15 M58.4 34.87 C64.76 27.55, 71.12 20.24, 88.58 0.15 M63.39 35.23 C73.87 23.16, 84.36 11.1, 93.57 0.51 M63.39 35.23 C75.05 21.81, 86.71 8.4, 93.57 0.51 M68.38 35.59 C76.52 26.22, 84.67 16.84, 99.21 0.12 M68.38 35.59 C80.47 21.68, 92.56 7.77, 99.21 0.12 M74.02 35.19 C80.98 27.19, 87.93 19.18, 104.2 0.48 M74.02 35.19 C84.9 22.68, 95.77 10.17, 104.2 0.48 M79.01 35.55 C87.64 25.62, 96.28 15.68, 109.84 0.08 M79.01 35.55 C88.21 24.96, 97.42 14.36, 109.84 0.08 M84.65 35.16 C92.04 26.66, 99.43 18.16, 114.83 0.44 M84.65 35.16 C95.74 22.4, 106.83 9.64, 114.83 0.44 M89.64 35.52 C96.63 27.47, 103.63 19.42, 120.47 0.05 M89.64 35.52 C97.62 26.33, 105.6 17.15, 120.47 0.05 M95.28 35.12 C106.47 22.26, 117.65 9.39, 125.46 0.41 M95.28 35.12 C103.56 25.6, 111.84 16.07, 125.46 0.41 M100.27 35.48 C110.35 23.88, 120.44 12.28, 130.44 0.77 M100.27 35.48 C109.42 24.96, 118.57 14.43, 130.44 0.77 M105.91 35.09 C113.8 26.01, 121.7 16.92, 136.09 0.37 M105.91 35.09 C114.96 24.68, 124.01 14.26, 136.09 0.37 M110.9 35.45 C118.42 26.8, 125.94 18.15, 140.42 1.49 M110.9 35.45 C118.67 26.5, 126.45 17.56, 140.42 1.49 M116.54 35.05 C126.04 24.12, 135.54 13.19, 144.09 3.36 M116.54 35.05 C125.2 25.1, 133.85 15.14, 144.09 3.36 M121.53 35.42 C129.9 25.78, 138.28 16.14, 144.49 9 M121.53 35.42 C127.79 28.21, 134.06 21, 144.49 9 M127.17 35.02 C132.64 28.72, 138.12 22.42, 144.23 15.4 M127.17 35.02 C132.95 28.37, 138.72 21.73, 144.23 15.4 M132.16 35.38 C135.28 31.79, 138.4 28.2, 143.96 21.8 M132.16 35.38 C135.31 31.76, 138.46 28.13, 143.96 21.8 M139.77 32.72 C140.98 31.33, 142.19 29.93, 144.36 27.44 M139.77 32.72 C140.9 31.42, 142.04 30.11, 144.36 27.44" stroke="#40c057" stroke-width="0.5" fill="none"></path><path d="M8.37 0 M8.37 0 C43.59 0, 78.82 0, 135.68 0 M8.37 0 C44.21 0, 80.06 0, 135.68 0 M135.68 0 C141.26 0, 144.05 2.79, 144.05 8.37 M135.68 0 C141.26 0, 144.05 2.79, 144.05 8.37 M144.05 8.37 C144.05 14.49, 144.05 20.6, 144.05 25.1 M144.05 8.37 C144.05 13.85, 144.05 19.34, 144.05 25.1 M144.05 25.1 C144.05 30.68, 141.26 33.47, 135.68 33.47 M144.05 25.1 C144.05 30.68, 141.26 33.47, 135.68 33.47 M135.68 33.47 C102.8 33.47, 69.91 33.47, 8.37 33.47 M135.68 33.47 C104.24 33.47, 72.8 33.47, 8.37 33.47 M8.37 33.47 C2.79 33.47, 0 30.68, 0 25.1 M8.37 33.47 C2.79 33.47, 0 30.68, 0 25.1 M0 25.1 C0 20.94, 0 16.78, 0 8.37 M0 25.1 C0 20.67, 0 16.24, 0 8.37 M0 8.37 C0 2.79, 2.79 0, 8.37 0 M0 8.37 C0 2.79, 2.79 0, 8.37 0" stroke="#2f9e44" stroke-width="1" fill="none"></path></g><g transform="translate(1714.8117353242687 544.4087833187003) rotate(0 43.63196563720703 10)"><text x="43.63196563720703" y="0" font-family="Virgil, Segoe UI Emoji" font-size="16px" fill="#2f9e44" text-anchor="middle" style="white-space: pre;" direction="ltr" dominant-baseline="text-before-edge">updateBlog</text></g><g stroke-linecap="round" transform="translate(2026.1075133644313 528.6794749104782) rotate(0 373.4834473778433 239.24081204675065)"><path d="M32 0 M32 0 C170.74 0, 309.49 0, 714.97 0 M32 0 C303.26 0, 574.53 0, 714.97 0 M714.97 0 C736.3 0, 746.97 10.67, 746.97 32 M714.97 0 C736.3 0, 746.97 10.67, 746.97 32 M746.97 32 C746.97 185, 746.97 338, 746.97 446.48 M746.97 32 C746.97 144.98, 746.97 257.96, 746.97 446.48 M746.97 446.48 C746.97 467.81, 736.3 478.48, 714.97 478.48 M746.97 446.48 C746.97 467.81, 736.3 478.48, 714.97 478.48 M714.97 478.48 C546.99 478.48, 379.02 478.48, 32 478.48 M714.97 478.48 C509.79 478.48, 304.61 478.48, 32 478.48 M32 478.48 C10.67 478.48, 0 467.81, 0 446.48 M32 478.48 C10.67 478.48, 0 467.81, 0 446.48 M0 446.48 C0 285.83, 0 125.18, 0 32 M0 446.48 C0 298.5, 0 150.52, 0 32 M0 32 C0 10.67, 10.67 0, 32 0 M0 32 C0 10.67, 10.67 0, 32 0" stroke="#1971c2" stroke-width="1" fill="none"></path></g><g stroke-linecap="round" transform="translate(2193.822721809576 552.6387904026416) rotate(0 212.11041068062423 24.311658367048267)"><path d="M12.16 0 M12.16 0 C95.51 0, 178.87 0, 412.06 0 M12.16 0 C156.82 0, 301.49 0, 412.06 0 M412.06 0 C420.17 0, 424.22 4.05, 424.22 12.16 M412.06 0 C420.17 0, 424.22 4.05, 424.22 12.16 M424.22 12.16 C424.22 20.13, 424.22 28.11, 424.22 36.47 M424.22 12.16 C424.22 20.22, 424.22 28.29, 424.22 36.47 M424.22 36.47 C424.22 44.57, 420.17 48.62, 412.06 48.62 M424.22 36.47 C424.22 44.57, 420.17 48.62, 412.06 48.62 M412.06 48.62 C277.48 48.62, 142.89 48.62, 12.16 48.62 M412.06 48.62 C327.75 48.62, 243.44 48.62, 12.16 48.62 M12.16 48.62 C4.05 48.62, 0 44.57, 0 36.47 M12.16 48.62 C4.05 48.62, 0 44.57, 0 36.47 M0 36.47 C0 30.01, 0 23.55, 0 12.16 M0 36.47 C0 28.51, 0 20.56, 0 12.16 M0 12.16 C0 4.05, 4.05 0, 12.16 0 M0 12.16 C0 4.05, 4.05 0, 12.16 0" stroke="#1971c2" stroke-width="1" fill="none"></path></g><g transform="translate(2328.911697212259 566.7325053980322) rotate(0 71.38394927978516 10)"><text x="71.38394927978516" y="0" font-family="Virgil, Segoe UI Emoji" font-size="16px" fill="#1971c2" text-anchor="middle" style="white-space: pre;" direction="ltr" dominant-baseline="text-before-edge">Update Blog Post</text></g><g stroke-linecap="round" transform="translate(2070.5027155999105 638.6104518745225) rotate(0 207.52995330712224 12.684343495851294)"><path d="M6.34 0 M6.34 0 C128.31 0, 250.28 0, 408.72 0 M6.34 0 C103.4 0, 200.45 0, 408.72 0 M408.72 0 C412.95 0, 415.06 2.11, 415.06 6.34 M408.72 0 C412.95 0, 415.06 2.11, 415.06 6.34 M415.06 6.34 C415.06 9.54, 415.06 12.74, 415.06 19.03 M415.06 6.34 C415.06 9.53, 415.06 12.73, 415.06 19.03 M415.06 19.03 C415.06 23.25, 412.95 25.37, 408.72 25.37 M415.06 19.03 C415.06 23.25, 412.95 25.37, 408.72 25.37 M408.72 25.37 C273.04 25.37, 137.35 25.37, 6.34 25.37 M408.72 25.37 C283.76 25.37, 158.81 25.37, 6.34 25.37 M6.34 25.37 C2.11 25.37, 0 23.25, 0 19.03 M6.34 25.37 C2.11 25.37, 0 23.25, 0 19.03 M0 19.03 C0 14.28, 0 9.54, 0 6.34 M0 19.03 C0 14.31, 0 9.6, 0 6.34 M0 6.34 C0 2.11, 2.11 0, 6.34 0 M0 6.34 C0 2.11, 2.11 0, 6.34 0" stroke="#1971c2" stroke-width="1" fill="none"></path></g><g stroke-linecap="round" transform="translate(2069.9324293533678 685.9587966123069) rotate(0 207.52995330712224 12.684343495851294)"><path d="M6.34 0 M6.34 0 C142.36 0, 278.38 0, 408.72 0 M6.34 0 C131.9 0, 257.45 0, 408.72 0 M408.72 0 C412.95 0, 415.06 2.11, 415.06 6.34 M408.72 0 C412.95 0, 415.06 2.11, 415.06 6.34 M415.06 6.34 C415.06 11.39, 415.06 16.44, 415.06 19.03 M415.06 6.34 C415.06 9.1, 415.06 11.86, 415.06 19.03 M415.06 19.03 C415.06 23.25, 412.95 25.37, 408.72 25.37 M415.06 19.03 C415.06 23.25, 412.95 25.37, 408.72 25.37 M408.72 25.37 C320.3 25.37, 231.89 25.37, 6.34 25.37 M408.72 25.37 C288.97 25.37, 169.22 25.37, 6.34 25.37 M6.34 25.37 C2.11 25.37, 0 23.25, 0 19.03 M6.34 25.37 C2.11 25.37, 0 23.25, 0 19.03 M0 19.03 C0 14.91, 0 10.8, 0 6.34 M0 19.03 C0 15.47, 0 11.91, 0 6.34 M0 6.34 C0 2.11, 2.11 0, 6.34 0 M0 6.34 C0 2.11, 2.11 0, 6.34 0" stroke="#1971c2" stroke-width="1" fill="none"></path></g><g stroke-linecap="round" transform="translate(2508.817251956549 613.2417648828201) rotate(0 107.46457683985113 59.545945855523996)"><path d="M29.77 0 M29.77 0 C90.07 0, 150.37 0, 185.16 0 M29.77 0 C86.82 0, 143.86 0, 185.16 0 M185.16 0 C205 0, 214.93 9.92, 214.93 29.77 M185.16 0 C205 0, 214.93 9.92, 214.93 29.77 M214.93 29.77 C214.93 48.89, 214.93 68.01, 214.93 89.32 M214.93 29.77 C214.93 53.14, 214.93 76.51, 214.93 89.32 M214.93 89.32 C214.93 109.17, 205 119.09, 185.16 119.09 M214.93 89.32 C214.93 109.17, 205 119.09, 185.16 119.09 M185.16 119.09 C146.88 119.09, 108.59 119.09, 29.77 119.09 M185.16 119.09 C130.32 119.09, 75.48 119.09, 29.77 119.09 M29.77 119.09 C9.92 119.09, 0 109.17, 0 89.32 M29.77 119.09 C9.92 119.09, 0 109.17, 0 89.32 M0 89.32 C0 77.36, 0 65.39, 0 29.77 M0 89.32 C0 66.07, 0 42.82, 0 29.77 M0 29.77 C0 9.92, 9.92 0, 29.77 0 M0 29.77 C0 9.92, 9.92 0, 29.77 0" stroke="#1971c2" stroke-width="1" fill="none"></path></g><g transform="translate(2571.017859375014 662.7877107383443) rotate(0 45.26396942138672 10)"><text x="45.26396942138672" y="0" font-family="Virgil, Segoe UI Emoji" font-size="16px" fill="#1971c2" text-anchor="middle" style="white-space: pre;" direction="ltr" dominant-baseline="text-before-edge">Show Image</text></g><g stroke-linecap="round" transform="translate(2059.9324293533678 741.4945713408721) rotate(0 336.4874455149436 50.032688233635554)"><path d="M25.02 0 M25.02 0 C227.49 0, 429.97 0, 647.96 0 M25.02 0 C154.96 0, 284.91 0, 647.96 0 M647.96 0 C664.64 0, 672.97 8.34, 672.97 25.02 M647.96 0 C664.64 0, 672.97 8.34, 672.97 25.02 M672.97 25.02 C672.97 39.43, 672.97 53.84, 672.97 75.05 M672.97 25.02 C672.97 38.5, 672.97 51.97, 672.97 75.05 M672.97 75.05 C672.97 91.73, 664.64 100.07, 647.96 100.07 M672.97 75.05 C672.97 91.73, 664.64 100.07, 647.96 100.07 M647.96 100.07 C440.16 100.07, 232.35 100.07, 25.02 100.07 M647.96 100.07 C477.08 100.07, 306.2 100.07, 25.02 100.07 M25.02 100.07 C8.34 100.07, 0 91.73, 0 75.05 M25.02 100.07 C8.34 100.07, 0 91.73, 0 75.05 M0 75.05 C0 57.17, 0 39.29, 0 25.02 M0 75.05 C0 59.25, 0 43.45, 0 25.02 M0 25.02 C0 8.34, 8.34 0, 25.02 0 M0 25.02 C0 8.34, 8.34 0, 25.02 0" stroke="#1971c2" stroke-width="1" fill="none"></path></g><g transform="translate(2081.4181576756523 645.6573093722178) rotate(0 17.271987915039062 10)"><text x="17.271987915039062" y="0" font-family="Virgil, Segoe UI Emoji" font-size="16px" fill="#1971c2" text-anchor="middle" style="white-space: pre;" direction="ltr" dominant-baseline="text-before-edge">title</text></g><g transform="translate(2079.8106266564487 694.9853118560837) rotate(0 35.79197692871094 10)"><text x="35.79197692871094" y="0" font-family="Virgil, Segoe UI Emoji" font-size="16px" fill="#1971c2" text-anchor="middle" style="white-space: pre;" direction="ltr" dominant-baseline="text-before-edge">image Url</text></g><g transform="translate(2134.185243663725 771.7960585809611) rotate(0 29.33599090576172 10)"><text x="29.33599090576172" y="0" font-family="Virgil, Segoe UI Emoji" font-size="16px" fill="#1971c2" text-anchor="middle" style="white-space: pre;" direction="ltr" dominant-baseline="text-before-edge">content</text></g><g stroke-linecap="round" transform="translate(2057.818372104059 853.5396055542252) rotate(0 167.36286557025983 15)"><path d="M7.5 0 M7.5 0 C125.52 0, 243.55 0, 327.23 0 M7.5 0 C94.65 0, 181.8 0, 327.23 0 M327.23 0 C332.23 0, 334.73 2.5, 334.73 7.5 M327.23 0 C332.23 0, 334.73 2.5, 334.73 7.5 M334.73 7.5 C334.73 11.19, 334.73 14.88, 334.73 22.5 M334.73 7.5 C334.73 12.01, 334.73 16.51, 334.73 22.5 M334.73 22.5 C334.73 27.5, 332.23 30, 327.23 30 M334.73 22.5 C334.73 27.5, 332.23 30, 327.23 30 M327.23 30 C203.3 30, 79.37 30, 7.5 30 M327.23 30 C213.08 30, 98.93 30, 7.5 30 M7.5 30 C2.5 30, 0 27.5, 0 22.5 M7.5 30 C2.5 30, 0 27.5, 0 22.5 M0 22.5 C0 17.7, 0 12.9, 0 7.5 M0 22.5 C0 17.65, 0 12.8, 0 7.5 M0 7.5 C0 2.5, 2.5 0, 7.5 0 M0 7.5 C0 2.5, 2.5 0, 7.5 0" stroke="#1971c2" stroke-width="1" fill="none"></path></g><g transform="translate(2209.405244327151 858.5396055542252) rotate(0 15.775993347167969 10)"><text x="15.775993347167969" y="0" font-family="Virgil, Segoe UI Emoji" font-size="16px" fill="#1971c2" text-anchor="middle" style="white-space: pre;" direction="ltr" dominant-baseline="text-before-edge">Tag</text></g><g stroke-linecap="round" transform="translate(2403.248788994349 853.6740050574518) rotate(0 167.36286557025983 15)"><path d="M7.5 0 M7.5 0 C92.85 0, 178.2 0, 327.23 0 M7.5 0 C100.58 0, 193.66 0, 327.23 0 M327.23 0 C332.23 0, 334.73 2.5, 334.73 7.5 M327.23 0 C332.23 0, 334.73 2.5, 334.73 7.5 M334.73 7.5 C334.73 12.91, 334.73 18.31, 334.73 22.5 M334.73 7.5 C334.73 13.39, 334.73 19.28, 334.73 22.5 M334.73 22.5 C334.73 27.5, 332.23 30, 327.23 30 M334.73 22.5 C334.73 27.5, 332.23 30, 327.23 30 M327.23 30 C243.87 30, 160.52 30, 7.5 30 M327.23 30 C215.71 30, 104.19 30, 7.5 30 M7.5 30 C2.5 30, 0 27.5, 0 22.5 M7.5 30 C2.5 30, 0 27.5, 0 22.5 M0 22.5 C0 18.52, 0 14.55, 0 7.5 M0 22.5 C0 18.32, 0 14.14, 0 7.5 M0 7.5 C0 2.5, 2.5 0, 7.5 0 M0 7.5 C0 2.5, 2.5 0, 7.5 0" stroke="#1971c2" stroke-width="1" fill="none"></path></g><g transform="translate(2556.7396605460544 858.6740050574518) rotate(0 13.871994018554688 10)"><text x="13.871994018554688" y="0" font-family="Virgil, Segoe UI Emoji" font-size="16px" fill="#1971c2" text-anchor="middle" style="white-space: pre;" direction="ltr" dominant-baseline="text-before-edge">cat</text></g><g stroke-linecap="round" transform="translate(2060.6371151031376 895.1160647906264) rotate(0 218.45258242854993 15.150743620044636)"><path d="M7.58 0 M7.58 0 C175.49 0, 343.4 0, 429.33 0 M7.58 0 C99.23 0, 190.89 0, 429.33 0 M429.33 0 C434.38 0, 436.91 2.53, 436.91 7.58 M429.33 0 C434.38 0, 436.91 2.53, 436.91 7.58 M436.91 7.58 C436.91 10.9, 436.91 14.23, 436.91 22.73 M436.91 7.58 C436.91 12.08, 436.91 16.59, 436.91 22.73 M436.91 22.73 C436.91 27.78, 434.38 30.3, 429.33 30.3 M436.91 22.73 C436.91 27.78, 434.38 30.3, 429.33 30.3 M429.33 30.3 C292.49 30.3, 155.65 30.3, 7.58 30.3 M429.33 30.3 C311.08 30.3, 192.84 30.3, 7.58 30.3 M7.58 30.3 C2.53 30.3, 0 27.78, 0 22.73 M7.58 30.3 C2.53 30.3, 0 27.78, 0 22.73 M0 22.73 C0 19.42, 0 16.12, 0 7.58 M0 22.73 C0 18.4, 0 14.08, 0 7.58 M0 7.58 C0 2.53, 2.53 0, 7.58 0 M0 7.58 C0 2.53, 2.53 0, 7.58 0" stroke="#1971c2" stroke-width="1" fill="none"></path></g><g stroke-linecap="round" transform="translate(2534.8906246980214 899.3441792892432) rotate(0 91.60914747003699 15.50308649492922)"><path d="M2.06 1.79 C2.06 1.79, 2.06 1.79, 2.06 1.79 M2.06 1.79 C2.06 1.79, 2.06 1.79, 2.06 1.79 M3.11 6.68 C4.88 4.65, 6.65 2.62, 8.36 0.64 M3.11 6.68 C4.22 5.41, 5.33 4.14, 8.36 0.64 M2.85 13.08 C5.96 9.51, 9.06 5.94, 14.01 0.25 M2.85 13.08 C5.52 10.01, 8.18 6.95, 14.01 0.25 M2.59 19.48 C7.91 13.36, 13.23 7.23, 18.99 0.61 M2.59 19.48 C7.19 14.19, 11.79 8.9, 18.99 0.61 M1.02 27.38 C8.57 18.69, 16.13 10, 24.64 0.22 M1.02 27.38 C8.66 18.6, 16.3 9.81, 24.64 0.22 M3.38 30.76 C9.9 23.26, 16.43 15.75, 29.62 0.58 M3.38 30.76 C11.75 21.13, 20.12 11.5, 29.62 0.58 M8.37 31.12 C13.76 24.92, 19.16 18.71, 34.61 0.94 M8.37 31.12 C15.15 23.32, 21.94 15.51, 34.61 0.94 M13.35 31.48 C20.57 23.18, 27.78 14.88, 40.25 0.54 M13.35 31.48 C22.83 20.58, 32.31 9.68, 40.25 0.54 M19 31.09 C26.05 22.98, 33.1 14.86, 45.24 0.9 M19 31.09 C27.08 21.79, 35.16 12.5, 45.24 0.9 M23.98 31.45 C31.14 23.22, 38.29 15, 50.88 0.51 M23.98 31.45 C32.26 21.93, 40.54 12.41, 50.88 0.51 M29.63 31.05 C37.93 21.5, 46.23 11.95, 55.87 0.87 M29.63 31.05 C37.16 22.39, 44.7 13.72, 55.87 0.87 M34.61 31.41 C43.96 20.66, 53.31 9.91, 61.51 0.47 M34.61 31.41 C43.05 21.71, 51.48 12.01, 61.51 0.47 M40.26 31.02 C48.88 21.1, 57.5 11.18, 66.5 0.83 M40.26 31.02 C47.17 23.07, 54.07 15.13, 66.5 0.83 M45.24 31.38 C54.46 20.78, 63.68 10.17, 72.14 0.44 M45.24 31.38 C50.63 25.18, 56.02 18.98, 72.14 0.44 M50.89 30.99 C60.31 20.15, 69.73 9.31, 77.13 0.8 M50.89 30.99 C57.57 23.3, 64.26 15.61, 77.13 0.8 M55.87 31.35 C64.06 21.93, 72.24 12.52, 82.77 0.4 M55.87 31.35 C66.63 18.97, 77.39 6.59, 82.77 0.4 M60.86 31.71 C67.18 24.44, 73.5 17.17, 87.76 0.76 M60.86 31.71 C69.79 21.44, 78.71 11.17, 87.76 0.76 M66.5 31.31 C72.12 24.86, 77.73 18.4, 93.4 0.37 M66.5 31.31 C73.12 23.71, 79.73 16.1, 93.4 0.37 M71.49 31.67 C78.4 23.73, 85.3 15.79, 98.39 0.73 M71.49 31.67 C79.99 21.89, 88.5 12.11, 98.39 0.73 M77.13 31.28 C84.01 23.37, 90.88 15.46, 104.03 0.33 M77.13 31.28 C84.47 22.83, 91.81 14.39, 104.03 0.33 M82.12 31.64 C90.15 22.4, 98.18 13.16, 109.02 0.69 M82.12 31.64 C89.68 22.95, 97.23 14.25, 109.02 0.69 M87.76 31.24 C97.67 19.85, 107.57 8.46, 114.66 0.3 M87.76 31.24 C96.31 21.42, 104.85 11.59, 114.66 0.3 M92.75 31.6 C101.03 22.08, 109.31 12.56, 119.65 0.66 M92.75 31.6 C99.5 23.83, 106.26 16.07, 119.65 0.66 M98.4 31.21 C106.28 22.13, 114.17 13.06, 125.29 0.26 M98.4 31.21 C104.26 24.46, 110.13 17.7, 125.29 0.26 M103.38 31.57 C108.9 25.22, 114.42 18.87, 130.28 0.62 M103.38 31.57 C111.53 22.19, 119.68 12.82, 130.28 0.62 M109.03 31.17 C117.12 21.87, 125.21 12.56, 135.92 0.23 M109.03 31.17 C117.48 21.45, 125.94 11.72, 135.92 0.23 M114.01 31.53 C124.38 19.61, 134.74 7.69, 140.91 0.59 M114.01 31.53 C121.13 23.35, 128.25 15.16, 140.91 0.59 M119.66 31.14 C127.12 22.55, 134.58 13.97, 145.9 0.95 M119.66 31.14 C128.77 20.66, 137.88 10.17, 145.9 0.95 M124.64 31.5 C130.45 24.82, 136.25 18.15, 151.54 0.56 M124.64 31.5 C130.44 24.83, 136.23 18.17, 151.54 0.56 M130.29 31.1 C137.14 23.22, 143.98 15.35, 156.53 0.92 M130.29 31.1 C139.72 20.25, 149.16 9.39, 156.53 0.92 M135.27 31.46 C144.36 21.01, 153.44 10.56, 162.17 0.52 M135.27 31.46 C145.67 19.5, 156.07 7.54, 162.17 0.52 M140.92 31.07 C148.03 22.89, 155.14 14.71, 167.16 0.88 M140.92 31.07 C151.31 19.11, 161.7 7.16, 167.16 0.88 M145.9 31.43 C155.74 20.11, 165.58 8.79, 172.8 0.49 M145.9 31.43 C152.91 23.37, 159.92 15.3, 172.8 0.49 M151.55 31.04 C158.67 22.84, 165.79 14.65, 177.13 1.6 M151.55 31.04 C156.72 25.08, 161.9 19.13, 177.13 1.6 M156.53 31.4 C166.21 20.26, 175.89 9.13, 181.46 2.72 M156.53 31.4 C163.31 23.6, 170.08 15.81, 181.46 2.72 M162.18 31 C168.2 24.07, 174.23 17.14, 184.48 5.34 M162.18 31 C169.44 22.64, 176.71 14.28, 184.48 5.34 M167.16 31.36 C171.7 26.14, 176.24 20.91, 184.22 11.74 M167.16 31.36 C172.38 25.36, 177.6 19.36, 184.22 11.74 M172.15 31.72 C176.6 26.6, 181.05 21.48, 184.61 17.38 M172.15 31.72 C174.84 28.63, 177.53 25.53, 184.61 17.38 M177.14 32.08 C179.55 29.3, 181.97 26.52, 184.35 23.78 M177.14 32.08 C178.58 30.42, 180.03 28.76, 184.35 23.78" stroke="#a5d8ff" stroke-width="0.5" fill="none"></path><path d="M7.75 0 M7.75 0 C53.65 0, 99.55 0, 175.47 0 M7.75 0 C61.87 0, 116 0, 175.47 0 M175.47 0 C180.63 0, 183.22 2.58, 183.22 7.75 M175.47 0 C180.63 0, 183.22 2.58, 183.22 7.75 M183.22 7.75 C183.22 13.1, 183.22 18.44, 183.22 23.25 M183.22 7.75 C183.22 11.22, 183.22 14.68, 183.22 23.25 M183.22 23.25 C183.22 28.42, 180.63 31.01, 175.47 31.01 M183.22 23.25 C183.22 28.42, 180.63 31.01, 175.47 31.01 M175.47 31.01 C140.6 31.01, 105.73 31.01, 7.75 31.01 M175.47 31.01 C116.19 31.01, 56.91 31.01, 7.75 31.01 M7.75 31.01 C2.58 31.01, 0 28.42, 0 23.25 M7.75 31.01 C2.58 31.01, 0 28.42, 0 23.25 M0 23.25 C0 19.21, 0 15.17, 0 7.75 M0 23.25 C0 19.76, 0 16.27, 0 7.75 M0 7.75 C0 2.58, 2.58 0, 7.75 0 M0 7.75 C0 2.58, 2.58 0, 7.75 0" stroke="#1971c2" stroke-width="1" fill="none"></path></g><g transform="translate(2602.211793042082 904.8472657841727) rotate(0 24.287979125976562 10)"><text x="24.287979125976562" y="0" font-family="Virgil, Segoe UI Emoji" font-size="16px" fill="#1971c2" text-anchor="middle" style="white-space: pre;" direction="ltr" dominant-baseline="text-before-edge">submit</text></g><g transform="translate(2204.3242126903974 908.8528612610313) rotate(0 15.519989013671875 10)"><text x="15.519989013671875" y="0" font-family="Virgil, Segoe UI Emoji" font-size="16px" fill="#1971c2" text-anchor="middle" style="white-space: pre;" direction="ltr" dominant-baseline="text-before-edge">Slug</text></g><g stroke-linecap="round"><g transform="translate(1837.553952168315 555.3852837149756) rotate(0 87.9658763419327 1.7711250270187975)"><path d="M0 0 C29.32 0.59, 146.61 2.95, 175.93 3.54 M0 0 C29.32 0.59, 146.61 2.95, 175.93 3.54" stroke="#2f9e44" stroke-width="1" fill="none"></path></g><g transform="translate(1837.553952168315 555.3852837149756) rotate(0 87.9658763419327 1.7711250270187975)"><path d="M147.54 13.23 C154.69 10.79, 161.85 8.35, 175.93 3.54 M147.54 13.23 C153.23 11.29, 158.91 9.35, 175.93 3.54" stroke="#2f9e44" stroke-width="1" fill="none"></path></g><g transform="translate(1837.553952168315 555.3852837149756) rotate(0 87.9658763419327 1.7711250270187975)"><path d="M147.95 -7.28 C155 -4.56, 162.05 -1.83, 175.93 3.54 M147.95 -7.28 C153.56 -5.12, 159.16 -2.95, 175.93 3.54" stroke="#2f9e44" stroke-width="1" fill="none"></path></g></g><mask></mask></svg>